<?xml version="1.0" encoding="utf-8"?>
<!-- Generator: Adobe Illustrator 18.0.0, SVG Export Plug-In . SVG Version: 6.00 Build 0)  -->
<!DOCTYPE svg PUBLIC "-//W3C//DTD SVG 1.1//EN" "http://www.w3.org/Graphics/SVG/1.1/DTD/svg11.dtd">
<svg version="1.1" id="Layer_1" xmlns="http://www.w3.org/2000/svg" xmlns:xlink="http://www.w3.org/1999/xlink" x="0px" y="0px"
	 viewBox="0 0 732.5 277.8" enable-background="new 0 0 732.5 277.8" xml:space="preserve">
<polygon fill-rule="evenodd" clip-rule="evenodd" fill="#F8991D" points="573.4,277.8 488.9,130.6 563.6,201.4 732.5,0 "/>
<g>
	<path fill-rule="evenodd" clip-rule="evenodd" fill="#F8991D" d="M561,126.1c13.2,0,23.9,10.7,23.9,23.9
		c0,13.2-10.7,23.9-23.9,23.9c-13.2,0-23.9-10.7-23.9-23.9C537.1,136.8,547.8,126.1,561,126.1"/>
	<path fill="#58595B" d="M0,93.9h90.7c0.3,1.6,0.6,3.3,0.7,5.2c0.2,1.9,0.2,3.7,0.2,5.4c0,1.8-0.1,3.6-0.2,5.5
		c-0.2,1.9-0.4,3.7-0.7,5.3H24.6v50.9h55.3c0.3,1.8,0.6,3.6,0.7,5.4c0.2,1.9,0.2,3.7,0.2,5.4c0,1.8-0.1,3.6-0.2,5.4
		c-0.2,1.8-0.4,3.7-0.7,5.4H24.6v79.4c-1.9,0.3-3.9,0.6-5.9,0.7c-2,0.2-4.1,0.2-6.4,0.2c-2.1,0-4.2-0.1-6.4-0.2
		c-2.2-0.2-4.1-0.4-5.9-0.7V93.9z"/>
	<path fill="#58595B" d="M147,140.7c9.6,0,18,1.7,25.2,5.1c7.2,3.4,13.3,8,18.1,13.8c4.8,5.8,8.4,12.6,10.7,20.5
		c2.3,7.9,3.5,16.4,3.5,25.6c0,9.2-1.2,17.7-3.5,25.6c-2.3,7.9-5.9,14.7-10.7,20.5c-4.8,5.8-10.9,10.3-18.1,13.6
		c-7.2,3.3-15.6,4.9-25.2,4.9v-19.1c11,0,19.2-4.1,24.5-12.1c5.3-8,8-19.2,8-33.5c0-14.3-2.7-25.5-8-33.4
		c-5.3-7.9-13.5-11.9-24.5-11.9V140.7z M146.9,270.3c-9.7,0-18.1-1.7-25.3-4.9c-7.2-3.3-13.3-7.8-18.1-13.6
		c-4.8-5.8-8.4-12.6-10.7-20.5c-2.3-7.9-3.5-16.4-3.5-25.6c0-9.2,1.2-17.7,3.5-25.6c2.3-7.9,5.9-14.7,10.7-20.5
		c4.8-5.8,10.9-10.4,18.1-13.8c7.2-3.4,15.7-5.1,25.3-5.1h0.1v19.5h-0.1c-11.1,0-19.3,4-24.5,11.9c-5.2,8-7.8,19.1-7.8,33.4
		c0,14.3,2.6,25.5,7.8,33.5c5.2,8,13.4,12.1,24.5,12.1h0.1v19.1H146.9z"/>
	<path fill="#58595B" d="M213.5,143.6c1.8-0.3,3.5-0.6,5.2-0.7c1.7-0.2,3.4-0.2,5.2-0.2c1.8,0,3.4,0.1,4.9,0.2
		c1.5,0.2,3.2,0.4,4.9,0.7c0.5,2.4,1,5.7,1.5,9.8c0.5,4.1,0.7,7.5,0.7,10.3c1.6-2.7,3.7-5.5,6.2-8.2c2.5-2.7,5.4-5.2,8.6-7.4
		c3.2-2.2,6.9-3.9,11.1-5.3c4.2-1.4,8.8-2,13.8-2c14.2,0,24.6,4.1,31.4,12.2c6.8,8.1,10.1,20.2,10.1,36.1v78.4
		c-1.8,0.3-3.8,0.6-6,0.7c-2.3,0.2-4.3,0.2-6,0.2c-1.8,0-3.7-0.1-5.9-0.2c-2.2-0.2-4.1-0.4-5.9-0.7v-71.9c0-11.4-1.8-19.8-5.3-25.2
		c-3.5-5.4-9.2-8.1-16.9-8.1c-4.5,0-8.8,0.8-12.8,2.4c-4,1.6-7.6,4.1-10.6,7.5c-3.1,3.4-5.5,7.8-7.4,13.2
		c-1.8,5.4-2.8,11.9-2.8,19.4v62.7c-1.8,0.3-3.7,0.6-5.9,0.7c-2.2,0.2-4.1,0.2-5.9,0.2c-1.8,0-3.8-0.1-6-0.2c-2.3-0.2-4.3-0.4-6-0.7
		V143.6z"/>
	<path fill="#58595B" d="M338.5,162.6h-18.8l-1-3.4l41.5-46.3h1.9v30.6h31.4c0.6,2.7,1,5.8,1,9.2c0,1.8-0.1,3.5-0.2,5.1
		c-0.2,1.6-0.4,3.2-0.7,4.8h-31.4v56.5c0,6.8,0.3,12.1,0.8,16.2c0.6,4,1.5,7.1,2.9,9.3c1.4,2.2,3.2,3.6,5.5,4.3
		c2.3,0.7,5.3,1.1,8.8,1.1c2.7,0,5.3-0.2,7.7-0.6c2.4-0.4,4.6-0.8,6.5-1.3c1.1,3.2,1.8,6.5,2.1,9.9c0.2,3.4,0.4,6.4,0.4,8.9
		c-3.2,0.8-6.6,1.4-10.1,1.8c-3.5,0.4-7.3,0.6-11.3,0.6c-11.6,0-20.6-2.8-27.2-8.4c-6.5-5.6-9.8-15-9.8-28V162.6z"/>
	<path fill="#58595B" d="M451.9,249.9c2.9,0.4,6,0.6,9.3,0.6c11.4,0,22.3-2,32.6-6c1.3,2.4,2.3,5.4,3.1,8.8
		c0.8,3.5,1.3,6.9,1.4,10.3c-5.3,2.2-11.1,3.9-17.5,5.1c-6.4,1.1-13.4,1.7-21.1,1.7c-2.7,0-5.3-0.1-7.8-0.3V249.9z M451.9,140.7
		c0.8,0,1.5,0,2.3,0c8.5,0,16,1.4,22.4,4.3c6.4,2.9,11.8,6.9,16.2,11.9c4.3,5.1,7.6,11.1,9.9,18.1c2.2,7,3.4,14.6,3.4,22.8
		c0,2.3-0.1,4.6-0.2,7.1c-0.2,2.5-0.3,4.6-0.5,6.4h-53.5v-17.9h30.5c0-4.5-0.6-8.8-1.8-12.9c-1.2-4.1-3-7.7-5.3-10.7
		c-2.3-3.1-5.3-5.5-8.9-7.4c-3.6-1.8-7.9-2.8-12.9-2.8c-0.5,0-1.1,0-1.6,0V140.7z M421.1,211.4c0.3,13.5,3.8,23.4,10.5,29.7
		c5,4.7,11.7,7.6,20.3,8.8V270c-8-0.6-15-2-21.1-4.4c-8-3.1-14.7-7.6-19.9-13.3c-5.2-5.7-9-12.5-11.5-20.3
		c-2.4-7.8-3.6-16.4-3.6-25.7c0-9.2,1.2-17.7,3.5-25.7c2.3-8,5.9-14.9,10.7-20.7c4.8-5.9,10.9-10.5,18.2-14
		c6.8-3.2,14.6-4.9,23.7-5.2v19.1c-9.1,0.3-16.1,3.3-21,8.9c-5.2,6-8.4,14.2-9.5,24.9h30.5v17.9H421.1z"/>
	<path fill-rule="evenodd" clip-rule="evenodd" fill="#58595B" d="M690.4,209.2c-2.4-0.3-5.5-0.6-9.2-1c-3.7-0.3-6.8-0.5-9.4-0.5
		c-2.1,0-4.1,0.1-6,0.3v-18.8c1.2,0,2.4-0.1,3.6-0.1c5.1,0,9.4,0.1,12.7,0.4c3.3,0.2,6.1,0.5,8.3,0.8v-4.6c0-9.5-2.4-16.1-7.2-19.8
		c-4.2-3.2-10-5-17.4-5.5v-19.4l0.2-0.4c15.4,0.2,27.1,3.9,35.2,11c8.4,7.3,12.6,19,12.6,35.1v77.5c-5.6,1.3-12.5,2.6-20.5,4
		c-8,1.4-16.3,2.1-24.6,2.1c-1,0-1.9,0-2.9,0v-19.3c0.9,0,1.8,0,2.7,0c3.7,0,7.5-0.2,11.5-0.6c3.9-0.4,7.4-1,10.5-1.8V209.2z
		 M665.8,208c-7.1,0.6-12.7,2.4-16.8,5.3c-5.2,3.7-7.8,9.3-7.8,16.9c0,4.8,0.9,8.6,2.7,11.3c1.8,2.7,4,4.8,6.6,6.3
		c2.7,1.4,5.6,2.3,8.8,2.7c2.2,0.2,4.4,0.4,6.5,0.4v19.3c-6.7-0.2-12.9-0.9-18.5-2.1c-6.4-1.4-11.7-3.8-16.2-7
		c-4.4-3.2-7.8-7.3-10.3-12.3c-2.4-5-3.6-11-3.6-18.1c0-6.9,1.4-13,4.2-18.2c2.8-5.2,6.6-9.6,11.5-13c4.8-3.5,10.4-6,16.7-7.7
		c5.2-1.4,10.6-2.2,16.2-2.5V208z M665.8,141.1v19.4c-1.2-0.1-2.4-0.1-3.6-0.1c-2.6,0-5.2,0.1-7.6,0.3L665.8,141.1z"/>
</g>
</svg>
